<?xml version="1.0" encoding="UTF-8" standalone="no"?>
<!-- Created with Inkscape (http://www.inkscape.org/) -->

<svg
   xmlns:dc="http://purl.org/dc/elements/1.1/"
   xmlns:cc="http://creativecommons.org/ns#"
   xmlns:rdf="http://www.w3.org/1999/02/22-rdf-syntax-ns#"
   xmlns:svg="http://www.w3.org/2000/svg"
   xmlns="http://www.w3.org/2000/svg"
   xmlns:xlink="http://www.w3.org/1999/xlink"
   xmlns:sodipodi="http://sodipodi.sourceforge.net/DTD/sodipodi-0.dtd"
   xmlns:inkscape="http://www.inkscape.org/namespaces/inkscape"
   width="73.332581mm"
   height="73.332581mm"
   viewBox="0 0 259.83985 259.83985"
   id="svg2"
   version="1.1"
   inkscape:version="0.91 r13725"
   sodipodi:docname="logo.svg">
  <defs
     id="defs4">
    <linearGradient
       inkscape:collect="always"
       id="linearGradient4375">
      <stop
         style="stop-color:#6e434c;stop-opacity:1"
         offset="0"
         id="stop4377" />
      <stop
         style="stop-color:#2f4254;stop-opacity:1"
         offset="1"
         id="stop4379" />
    </linearGradient>
    <filter
       inkscape:label="Evanescent"
       inkscape:menu="Blurs"
       inkscape:menu-tooltip="Blur the contents of objects, preserving the outline and adding progressive transparency at edges"
       style="color-interpolation-filters:sRGB"
       id="filter4365">
      <feGaussianBlur
         result="result6"
         stdDeviation="3"
         in="SourceGraphic"
         id="feGaussianBlur4367" />
      <feColorMatrix
         values="1 0 0 0 0 0 1 0 0 0 0 0 1 0 0 0 0 0 1 0 "
         result="result7"
         in="SourceGraphic"
         id="feColorMatrix4369" />
      <feComposite
         operator="in"
         in="result6"
         in2="result7"
         id="feComposite4371" />
    </filter>
    <linearGradient
       inkscape:collect="always"
       xlink:href="#linearGradient4375"
       id="linearGradient4381"
       x1="161.78572"
       y1="263.79077"
       x2="421.42856"
       y2="469.50507"
       gradientUnits="userSpaceOnUse"
       gradientTransform="matrix(0.72620446,0,0,0.78965922,109.04274,97.576551)" />
  </defs>
  <sodipodi:namedview
     id="base"
     pagecolor="#ffffff"
     bordercolor="#666666"
     borderopacity="1.0"
     inkscape:pageopacity="0.0"
     inkscape:pageshadow="2"
     inkscape:zoom="1.979899"
     inkscape:cx="50.576322"
     inkscape:cy="130.14717"
     inkscape:document-units="px"
     inkscape:current-layer="layer1"
     showgrid="false"
     inkscape:window-width="1920"
     inkscape:window-height="1026"
     inkscape:window-x="1600"
     inkscape:window-y="0"
     inkscape:window-maximized="1"
     fit-margin-top="0"
     fit-margin-left="0"
     fit-margin-right="0"
     fit-margin-bottom="0" />
  <metadata
     id="metadata7">
    <rdf:RDF>
      <cc:Work
         rdf:about="">
        <dc:format>image/svg+xml</dc:format>
        <dc:type
           rdf:resource="http://purl.org/dc/dcmitype/StillImage" />
        <dc:title></dc:title>
      </cc:Work>
    </rdf:RDF>
  </metadata>
  <g
     inkscape:label="Layer 1"
     inkscape:groupmode="layer"
     id="layer1"
     transform="translate(-187.77637,-250.13379)">
    <rect
       style="fill:url(#linearGradient4381);fill-opacity:1;stroke:none;stroke-width:2;stroke-miterlimit:4;stroke-dasharray:none;stroke-opacity:1"
       id="rect4373"
       width="220.71426"
       height="217.15628"
       x="207.33971"
       y="271.47473" />
    <path
       style="color:#000000;font-style:normal;font-variant:normal;font-weight:normal;font-stretch:normal;font-size:medium;line-height:normal;font-family:sans-serif;text-indent:0;text-align:start;text-decoration:none;text-decoration-line:none;text-decoration-style:solid;text-decoration-color:#000000;letter-spacing:normal;word-spacing:normal;text-transform:none;direction:ltr;block-progression:tb;writing-mode:lr-tb;baseline-shift:baseline;text-anchor:start;white-space:normal;clip-rule:nonzero;display:inline;overflow:visible;visibility:visible;opacity:1;isolation:auto;mix-blend-mode:normal;color-interpolation:sRGB;color-interpolation-filters:linearRGB;solid-color:#000000;solid-opacity:1;fill:#ebeeee;fill-opacity:1;fill-rule:nonzero;stroke:none;stroke-width:17.02899933;stroke-linecap:butt;stroke-linejoin:miter;stroke-miterlimit:4;stroke-dasharray:none;stroke-dashoffset:0;stroke-opacity:1;filter:url(#filter4365);color-rendering:auto;image-rendering:auto;shape-rendering:auto;text-rendering:auto;enable-background:accumulate"
       d="m 317.69727,271.78711 c -59.6934,0 -108.26758,48.57223 -108.26758,108.26562 0,59.6934 48.57418,108.26758 108.26758,108.26758 59.69339,10e-6 108.26562,-48.57418 108.26562,-108.26758 0,-59.69339 -48.57223,-108.26562 -108.26562,-108.26562 z m 0,17.0293 c 8.12473,-1e-5 15.99541,1.06001 23.48632,3.04101 l 0,44.86133 c -5.12845,-24.42153 -26.88252,-42.87901 -52.78125,-42.87891 -0.24894,0 -0.49401,0.0161 -0.74218,0.0195 9.40224,-3.26408 19.50581,-5.04297 30.03711,-5.04297 z m 39.64843,9.0039 c 30.56129,14.7207 51.58789,45.96189 51.58789,82.23242 0,13.23056 -2.80193,25.79026 -7.83984,37.125 l -43.74805,0 z m -68.94336,13.04688 0,0.002 c 20.47852,-9e-5 36.89623,16.41512 36.90039,36.89258 -0.015,7.29171 -2.19476,14.3586 -6.18359,20.35547 -20.66912,-13.22981 -42.51119,-13.33799 -61.45508,-0.004 -3.97966,-5.99574 -6.15327,-13.05726 -6.16406,-20.34375 l 0,-0.004 0,-0.008 c 0.005,-20.47654 16.4245,-36.89071 36.90234,-36.89062 z m -53.59179,30.93945 c -0.21769,1.95949 -0.33986,3.94735 -0.33985,5.96289 l 0,0.006 0,0.008 c 0.0136,11.16605 3.65234,21.88862 10.02149,30.91797 -6.36283,9.0201 -10.00089,19.73212 -10.02149,30.88672 l 0,0.008 0,0.008 c -1e-5,2.57103 0.19337,5.09897 0.54492,7.57617 l -0.71484,0 c -5.03815,-11.33478 -7.84179,-23.89437 -7.8418,-37.125 1e-5,-13.66945 2.99341,-26.62224 8.35157,-38.24805 z m 106.37304,16.69531 0,40.33594 c -1.5394,-7.23448 -4.5839,-14.08552 -8.87304,-20.16601 4.28972,-6.08124 7.33383,-12.93351 8.87304,-20.16993 z m -26.96345,25.53209 c 6.93653,7.11149 11.0742,16.24461 11.08259,25.57729 0.002,2.5959 -0.26846,5.12625 -0.77148,7.5664 l -72.26172,0 c -0.50327,-2.44085 -0.7736,-4.97168 -0.76953,-7.56835 0.0146,-9.32184 3.74948,-18.11378 9.92188,-25.09961 12.1773,-13.33982 41.69271,-11.8614 52.79826,-0.47573 z m -54.13225,49.3058 56.62695,0 c -6.75215,8.05891 -16.89943,13.16216 -28.3125,13.16211 -11.41342,5e-5 -21.56179,-5.10277 -28.31445,-13.16211 z m 76.70313,0 4.37695,0 0,34.90625 c -7.48195,1.97675 -15.35649,3.04493 -23.4707,3.04493 -13.90193,-10e-6 -27.06227,-3.09583 -38.83985,-8.62696 3.10156,0.55904 6.28758,0.8672 9.54492,0.86719 21.17592,9e-5 39.57585,-12.34195 48.38868,-30.19141 z m 20.55468,0 34.47266,0 c -8.85034,12.30608 -20.68943,22.30794 -34.47266,28.94727 z"
       id="path4180"
       inkscape:connector-curvature="0"
       sodipodi:nodetypes="ssssscccscsccccccsccccccccscccccsccscccccsscssssccsccccccscccccccc" />
  </g>
</svg>
